<mxfile host="app.diagrams.net" modified="2023-02-11T12:25:50.768Z" agent="5.0 (Macintosh; Intel Mac OS X 10_15_7) AppleWebKit/605.1.15 (KHTML, like Gecko) Version/16.2 Safari/605.1.15" etag="5hCSOlKjNIuff4iqNWV9" version="20.8.19" type="github">
  <diagram id="C5RBs43oDa-KdzZeNtuy" name="Page-1">
    <mxGraphModel dx="2206" dy="1198" grid="1" gridSize="10" guides="1" tooltips="1" connect="1" arrows="1" fold="1" page="1" pageScale="1" pageWidth="827" pageHeight="1169" math="0" shadow="0">
      <root>
        <mxCell id="WIyWlLk6GJQsqaUBKTNV-0" />
        <mxCell id="WIyWlLk6GJQsqaUBKTNV-1" parent="WIyWlLk6GJQsqaUBKTNV-0" />
        <mxCell id="WIyWlLk6GJQsqaUBKTNV-2" value="" style="rounded=0;html=1;jettySize=auto;orthogonalLoop=1;fontSize=11;endArrow=block;endFill=0;endSize=8;strokeWidth=1;shadow=0;labelBackgroundColor=none;edgeStyle=orthogonalEdgeStyle;" parent="WIyWlLk6GJQsqaUBKTNV-1" source="WIyWlLk6GJQsqaUBKTNV-3" target="WIyWlLk6GJQsqaUBKTNV-6" edge="1">
          <mxGeometry relative="1" as="geometry" />
        </mxCell>
        <mxCell id="WIyWlLk6GJQsqaUBKTNV-3" value="Prompt user for input" style="rounded=1;whiteSpace=wrap;html=1;fontSize=12;glass=0;strokeWidth=1;shadow=0;shape=parallelogram;perimeter=parallelogramPerimeter;" parent="WIyWlLk6GJQsqaUBKTNV-1" vertex="1">
          <mxGeometry x="275" y="110" width="170" height="40" as="geometry" />
        </mxCell>
        <mxCell id="qOnM7dYOcG7nfSBSF0P8-2" value="" style="edgeStyle=orthogonalEdgeStyle;rounded=0;orthogonalLoop=1;jettySize=auto;html=1;entryX=1;entryY=0.5;entryDx=0;entryDy=0;entryPerimeter=0;" edge="1" parent="WIyWlLk6GJQsqaUBKTNV-1" source="WIyWlLk6GJQsqaUBKTNV-6" target="qOnM7dYOcG7nfSBSF0P8-17">
          <mxGeometry relative="1" as="geometry">
            <mxPoint x="230" y="260" as="targetPoint" />
          </mxGeometry>
        </mxCell>
        <mxCell id="qOnM7dYOcG7nfSBSF0P8-3" value="OFF" style="edgeLabel;html=1;align=center;verticalAlign=middle;resizable=0;points=[];" vertex="1" connectable="0" parent="qOnM7dYOcG7nfSBSF0P8-2">
          <mxGeometry x="-0.0187" y="-2" relative="1" as="geometry">
            <mxPoint as="offset" />
          </mxGeometry>
        </mxCell>
        <mxCell id="qOnM7dYOcG7nfSBSF0P8-5" value="" style="edgeStyle=orthogonalEdgeStyle;rounded=0;orthogonalLoop=1;jettySize=auto;html=1;" edge="1" parent="WIyWlLk6GJQsqaUBKTNV-1" source="WIyWlLk6GJQsqaUBKTNV-6" target="qOnM7dYOcG7nfSBSF0P8-4">
          <mxGeometry relative="1" as="geometry" />
        </mxCell>
        <mxCell id="qOnM7dYOcG7nfSBSF0P8-6" value="REPORT" style="edgeLabel;html=1;align=center;verticalAlign=middle;resizable=0;points=[];" vertex="1" connectable="0" parent="qOnM7dYOcG7nfSBSF0P8-5">
          <mxGeometry x="-0.1429" y="-1" relative="1" as="geometry">
            <mxPoint as="offset" />
          </mxGeometry>
        </mxCell>
        <mxCell id="qOnM7dYOcG7nfSBSF0P8-10" value="ESPRESSO / LATTE / CAPPUCCINO" style="edgeStyle=orthogonalEdgeStyle;rounded=0;orthogonalLoop=1;jettySize=auto;html=1;" edge="1" parent="WIyWlLk6GJQsqaUBKTNV-1" source="WIyWlLk6GJQsqaUBKTNV-6" target="qOnM7dYOcG7nfSBSF0P8-9">
          <mxGeometry relative="1" as="geometry" />
        </mxCell>
        <mxCell id="WIyWlLk6GJQsqaUBKTNV-6" value="Process Input" style="rhombus;whiteSpace=wrap;html=1;shadow=0;fontFamily=Helvetica;fontSize=12;align=center;strokeWidth=1;spacing=6;spacingTop=-4;" parent="WIyWlLk6GJQsqaUBKTNV-1" vertex="1">
          <mxGeometry x="310" y="200" width="100" height="80" as="geometry" />
        </mxCell>
        <mxCell id="qOnM7dYOcG7nfSBSF0P8-0" value="&lt;h1&gt;Coffee Machine&lt;/h1&gt;&lt;p&gt;&lt;br&gt;&lt;/p&gt;" style="text;html=1;strokeColor=none;fillColor=none;spacing=5;spacingTop=-20;whiteSpace=wrap;overflow=hidden;rounded=0;" vertex="1" parent="WIyWlLk6GJQsqaUBKTNV-1">
          <mxGeometry x="265" y="30" width="190" height="30" as="geometry" />
        </mxCell>
        <mxCell id="qOnM7dYOcG7nfSBSF0P8-8" style="edgeStyle=orthogonalEdgeStyle;rounded=0;orthogonalLoop=1;jettySize=auto;html=1;entryX=1;entryY=0.5;entryDx=0;entryDy=0;" edge="1" parent="WIyWlLk6GJQsqaUBKTNV-1" source="qOnM7dYOcG7nfSBSF0P8-4" target="WIyWlLk6GJQsqaUBKTNV-3">
          <mxGeometry relative="1" as="geometry">
            <Array as="points">
              <mxPoint x="560" y="130" />
            </Array>
          </mxGeometry>
        </mxCell>
        <mxCell id="qOnM7dYOcG7nfSBSF0P8-4" value="Print report" style="whiteSpace=wrap;html=1;shadow=0;strokeWidth=1;spacing=6;spacingTop=-4;rounded=0;" vertex="1" parent="WIyWlLk6GJQsqaUBKTNV-1">
          <mxGeometry x="520" y="230" width="80" height="30" as="geometry" />
        </mxCell>
        <mxCell id="qOnM7dYOcG7nfSBSF0P8-13" value="" style="edgeStyle=orthogonalEdgeStyle;rounded=0;orthogonalLoop=1;jettySize=auto;html=1;" edge="1" parent="WIyWlLk6GJQsqaUBKTNV-1" source="qOnM7dYOcG7nfSBSF0P8-9" target="qOnM7dYOcG7nfSBSF0P8-12">
          <mxGeometry relative="1" as="geometry" />
        </mxCell>
        <mxCell id="qOnM7dYOcG7nfSBSF0P8-15" value="NO" style="edgeLabel;html=1;align=center;verticalAlign=middle;resizable=0;points=[];" vertex="1" connectable="0" parent="qOnM7dYOcG7nfSBSF0P8-13">
          <mxGeometry x="0.0611" y="-3" relative="1" as="geometry">
            <mxPoint as="offset" />
          </mxGeometry>
        </mxCell>
        <mxCell id="qOnM7dYOcG7nfSBSF0P8-26" value="" style="edgeStyle=orthogonalEdgeStyle;rounded=0;orthogonalLoop=1;jettySize=auto;html=1;" edge="1" parent="WIyWlLk6GJQsqaUBKTNV-1" source="qOnM7dYOcG7nfSBSF0P8-9" target="qOnM7dYOcG7nfSBSF0P8-25">
          <mxGeometry relative="1" as="geometry" />
        </mxCell>
        <mxCell id="qOnM7dYOcG7nfSBSF0P8-27" value="YES" style="edgeLabel;html=1;align=center;verticalAlign=middle;resizable=0;points=[];" vertex="1" connectable="0" parent="qOnM7dYOcG7nfSBSF0P8-26">
          <mxGeometry x="-0.1874" y="-1" relative="1" as="geometry">
            <mxPoint as="offset" />
          </mxGeometry>
        </mxCell>
        <mxCell id="qOnM7dYOcG7nfSBSF0P8-9" value="Enough resources?" style="rhombus;whiteSpace=wrap;html=1;shadow=0;strokeWidth=1;spacing=6;spacingTop=-4;" vertex="1" parent="WIyWlLk6GJQsqaUBKTNV-1">
          <mxGeometry x="295" y="360" width="130" height="100" as="geometry" />
        </mxCell>
        <mxCell id="qOnM7dYOcG7nfSBSF0P8-14" style="edgeStyle=orthogonalEdgeStyle;rounded=0;orthogonalLoop=1;jettySize=auto;html=1;entryX=0;entryY=0.5;entryDx=0;entryDy=0;" edge="1" parent="WIyWlLk6GJQsqaUBKTNV-1" source="qOnM7dYOcG7nfSBSF0P8-12" target="WIyWlLk6GJQsqaUBKTNV-3">
          <mxGeometry relative="1" as="geometry">
            <Array as="points">
              <mxPoint x="40" y="410" />
              <mxPoint x="40" y="130" />
            </Array>
          </mxGeometry>
        </mxCell>
        <mxCell id="qOnM7dYOcG7nfSBSF0P8-12" value="Print &amp;nbsp;“​Sorry there is &lt;br&gt;not enough water.”​" style="whiteSpace=wrap;html=1;shadow=0;strokeWidth=1;spacing=6;spacingTop=-4;rounded=0;shape=parallelogram;perimeter=parallelogramPerimeter;" vertex="1" parent="WIyWlLk6GJQsqaUBKTNV-1">
          <mxGeometry x="50" y="390" width="190" height="40" as="geometry" />
        </mxCell>
        <mxCell id="qOnM7dYOcG7nfSBSF0P8-17" value="Exit program" style="strokeWidth=2;html=1;shape=mxgraph.flowchart.terminator;whiteSpace=wrap;" vertex="1" parent="WIyWlLk6GJQsqaUBKTNV-1">
          <mxGeometry x="120" y="220" width="100" height="40" as="geometry" />
        </mxCell>
        <mxCell id="qOnM7dYOcG7nfSBSF0P8-36" style="edgeStyle=orthogonalEdgeStyle;rounded=0;orthogonalLoop=1;jettySize=auto;html=1;exitX=0.5;exitY=1;exitDx=0;exitDy=0;entryX=0.5;entryY=0;entryDx=0;entryDy=0;" edge="1" parent="WIyWlLk6GJQsqaUBKTNV-1" source="qOnM7dYOcG7nfSBSF0P8-25" target="qOnM7dYOcG7nfSBSF0P8-33">
          <mxGeometry relative="1" as="geometry" />
        </mxCell>
        <mxCell id="qOnM7dYOcG7nfSBSF0P8-25" value="How many quaters?" style="whiteSpace=wrap;html=1;shadow=0;strokeWidth=1;spacing=6;spacingTop=-4;shape=parallelogram;perimeter=parallelogramPerimeter;" vertex="1" parent="WIyWlLk6GJQsqaUBKTNV-1">
          <mxGeometry x="260" y="520" width="200" height="40" as="geometry" />
        </mxCell>
        <mxCell id="qOnM7dYOcG7nfSBSF0P8-32" style="edgeStyle=orthogonalEdgeStyle;rounded=0;orthogonalLoop=1;jettySize=auto;html=1;exitX=0.5;exitY=1;exitDx=0;exitDy=0;" edge="1" parent="WIyWlLk6GJQsqaUBKTNV-1" source="qOnM7dYOcG7nfSBSF0P8-25" target="qOnM7dYOcG7nfSBSF0P8-25">
          <mxGeometry relative="1" as="geometry" />
        </mxCell>
        <mxCell id="qOnM7dYOcG7nfSBSF0P8-37" style="edgeStyle=orthogonalEdgeStyle;rounded=0;orthogonalLoop=1;jettySize=auto;html=1;exitX=0.5;exitY=1;exitDx=0;exitDy=0;" edge="1" parent="WIyWlLk6GJQsqaUBKTNV-1" source="qOnM7dYOcG7nfSBSF0P8-33" target="qOnM7dYOcG7nfSBSF0P8-34">
          <mxGeometry relative="1" as="geometry" />
        </mxCell>
        <mxCell id="qOnM7dYOcG7nfSBSF0P8-33" value="How many dimes?" style="whiteSpace=wrap;html=1;shadow=0;strokeWidth=1;spacing=6;spacingTop=-4;shape=parallelogram;perimeter=parallelogramPerimeter;" vertex="1" parent="WIyWlLk6GJQsqaUBKTNV-1">
          <mxGeometry x="260" y="585" width="200" height="40" as="geometry" />
        </mxCell>
        <mxCell id="qOnM7dYOcG7nfSBSF0P8-38" style="edgeStyle=orthogonalEdgeStyle;rounded=0;orthogonalLoop=1;jettySize=auto;html=1;exitX=0.5;exitY=1;exitDx=0;exitDy=0;entryX=0.5;entryY=0;entryDx=0;entryDy=0;" edge="1" parent="WIyWlLk6GJQsqaUBKTNV-1" source="qOnM7dYOcG7nfSBSF0P8-34" target="qOnM7dYOcG7nfSBSF0P8-35">
          <mxGeometry relative="1" as="geometry" />
        </mxCell>
        <mxCell id="qOnM7dYOcG7nfSBSF0P8-34" value="How many nickles?" style="whiteSpace=wrap;html=1;shadow=0;strokeWidth=1;spacing=6;spacingTop=-4;shape=parallelogram;perimeter=parallelogramPerimeter;" vertex="1" parent="WIyWlLk6GJQsqaUBKTNV-1">
          <mxGeometry x="260" y="650" width="200" height="40" as="geometry" />
        </mxCell>
        <mxCell id="qOnM7dYOcG7nfSBSF0P8-40" value="" style="edgeStyle=orthogonalEdgeStyle;rounded=0;orthogonalLoop=1;jettySize=auto;html=1;" edge="1" parent="WIyWlLk6GJQsqaUBKTNV-1" source="qOnM7dYOcG7nfSBSF0P8-35" target="qOnM7dYOcG7nfSBSF0P8-39">
          <mxGeometry relative="1" as="geometry" />
        </mxCell>
        <mxCell id="qOnM7dYOcG7nfSBSF0P8-35" value="How many pennies?" style="whiteSpace=wrap;html=1;shadow=0;strokeWidth=1;spacing=6;spacingTop=-4;shape=parallelogram;perimeter=parallelogramPerimeter;" vertex="1" parent="WIyWlLk6GJQsqaUBKTNV-1">
          <mxGeometry x="260" y="720" width="200" height="40" as="geometry" />
        </mxCell>
        <mxCell id="qOnM7dYOcG7nfSBSF0P8-42" style="edgeStyle=orthogonalEdgeStyle;rounded=0;orthogonalLoop=1;jettySize=auto;html=1;exitX=0;exitY=0.5;exitDx=0;exitDy=0;fontSize=11;" edge="1" parent="WIyWlLk6GJQsqaUBKTNV-1" source="qOnM7dYOcG7nfSBSF0P8-39" target="qOnM7dYOcG7nfSBSF0P8-41">
          <mxGeometry relative="1" as="geometry" />
        </mxCell>
        <mxCell id="qOnM7dYOcG7nfSBSF0P8-43" value="NO" style="edgeLabel;html=1;align=center;verticalAlign=middle;resizable=0;points=[];fontSize=11;" vertex="1" connectable="0" parent="qOnM7dYOcG7nfSBSF0P8-42">
          <mxGeometry x="-0.1719" y="-2" relative="1" as="geometry">
            <mxPoint as="offset" />
          </mxGeometry>
        </mxCell>
        <mxCell id="qOnM7dYOcG7nfSBSF0P8-46" value="YES" style="edgeStyle=orthogonalEdgeStyle;rounded=0;orthogonalLoop=1;jettySize=auto;html=1;exitX=0.5;exitY=1;exitDx=0;exitDy=0;entryX=0.5;entryY=0;entryDx=0;entryDy=0;fontSize=11;endArrow=classic;endFill=1;" edge="1" parent="WIyWlLk6GJQsqaUBKTNV-1" source="qOnM7dYOcG7nfSBSF0P8-39" target="qOnM7dYOcG7nfSBSF0P8-45">
          <mxGeometry relative="1" as="geometry" />
        </mxCell>
        <mxCell id="qOnM7dYOcG7nfSBSF0P8-39" value="&lt;font style=&quot;font-size: 11px;&quot;&gt;Is the total money &lt;br&gt;enough to buy drink?&lt;/font&gt;" style="rhombus;whiteSpace=wrap;html=1;shadow=0;strokeWidth=1;spacing=6;spacingTop=-4;" vertex="1" parent="WIyWlLk6GJQsqaUBKTNV-1">
          <mxGeometry x="285" y="800" width="150" height="90" as="geometry" />
        </mxCell>
        <mxCell id="qOnM7dYOcG7nfSBSF0P8-44" style="edgeStyle=orthogonalEdgeStyle;rounded=0;orthogonalLoop=1;jettySize=auto;html=1;exitX=0;exitY=0.5;exitDx=0;exitDy=0;fontSize=11;endArrow=none;endFill=0;" edge="1" parent="WIyWlLk6GJQsqaUBKTNV-1" source="qOnM7dYOcG7nfSBSF0P8-41">
          <mxGeometry relative="1" as="geometry">
            <mxPoint x="40" y="400" as="targetPoint" />
            <Array as="points">
              <mxPoint x="40" y="845" />
            </Array>
          </mxGeometry>
        </mxCell>
        <mxCell id="qOnM7dYOcG7nfSBSF0P8-41" value="Print &amp;nbsp;“Sorry that&#39;s &lt;br&gt;not enough money. &lt;br&gt;Money refunded.”​" style="whiteSpace=wrap;html=1;shadow=0;strokeWidth=1;spacing=6;spacingTop=-4;rounded=0;shape=parallelogram;perimeter=parallelogramPerimeter;" vertex="1" parent="WIyWlLk6GJQsqaUBKTNV-1">
          <mxGeometry x="50" y="810" width="190" height="70" as="geometry" />
        </mxCell>
        <mxCell id="qOnM7dYOcG7nfSBSF0P8-52" style="edgeStyle=orthogonalEdgeStyle;rounded=0;orthogonalLoop=1;jettySize=auto;html=1;exitX=1;exitY=0.5;exitDx=0;exitDy=0;entryX=0;entryY=0.5;entryDx=0;entryDy=0;fontSize=11;endArrow=classic;endFill=1;" edge="1" parent="WIyWlLk6GJQsqaUBKTNV-1" source="qOnM7dYOcG7nfSBSF0P8-45" target="qOnM7dYOcG7nfSBSF0P8-47">
          <mxGeometry relative="1" as="geometry" />
        </mxCell>
        <mxCell id="qOnM7dYOcG7nfSBSF0P8-54" value="" style="edgeStyle=orthogonalEdgeStyle;rounded=0;orthogonalLoop=1;jettySize=auto;html=1;fontSize=11;endArrow=classic;endFill=1;" edge="1" parent="WIyWlLk6GJQsqaUBKTNV-1" source="qOnM7dYOcG7nfSBSF0P8-45" target="qOnM7dYOcG7nfSBSF0P8-53">
          <mxGeometry relative="1" as="geometry" />
        </mxCell>
        <mxCell id="qOnM7dYOcG7nfSBSF0P8-45" value="Add to profit" style="whiteSpace=wrap;html=1;shadow=0;strokeWidth=1;spacing=6;spacingTop=-4;fontSize=11;" vertex="1" parent="WIyWlLk6GJQsqaUBKTNV-1">
          <mxGeometry x="300" y="930" width="120" height="30" as="geometry" />
        </mxCell>
        <mxCell id="qOnM7dYOcG7nfSBSF0P8-50" style="edgeStyle=orthogonalEdgeStyle;rounded=0;orthogonalLoop=1;jettySize=auto;html=1;exitX=1;exitY=0.5;exitDx=0;exitDy=0;entryX=0;entryY=0.5;entryDx=0;entryDy=0;fontSize=11;endArrow=classic;endFill=1;" edge="1" parent="WIyWlLk6GJQsqaUBKTNV-1" source="qOnM7dYOcG7nfSBSF0P8-47" target="qOnM7dYOcG7nfSBSF0P8-49">
          <mxGeometry relative="1" as="geometry">
            <Array as="points">
              <mxPoint x="642" y="945" />
            </Array>
          </mxGeometry>
        </mxCell>
        <mxCell id="qOnM7dYOcG7nfSBSF0P8-51" value="YES" style="edgeLabel;html=1;align=center;verticalAlign=middle;resizable=0;points=[];fontSize=11;" vertex="1" connectable="0" parent="qOnM7dYOcG7nfSBSF0P8-50">
          <mxGeometry x="-0.2773" y="1" relative="1" as="geometry">
            <mxPoint as="offset" />
          </mxGeometry>
        </mxCell>
        <mxCell id="qOnM7dYOcG7nfSBSF0P8-57" style="edgeStyle=orthogonalEdgeStyle;rounded=0;orthogonalLoop=1;jettySize=auto;html=1;exitX=0.5;exitY=1;exitDx=0;exitDy=0;entryX=1;entryY=0.5;entryDx=0;entryDy=0;fontSize=11;endArrow=classic;endFill=1;" edge="1" parent="WIyWlLk6GJQsqaUBKTNV-1" source="qOnM7dYOcG7nfSBSF0P8-47" target="qOnM7dYOcG7nfSBSF0P8-53">
          <mxGeometry relative="1" as="geometry" />
        </mxCell>
        <mxCell id="qOnM7dYOcG7nfSBSF0P8-47" value="Need changes?" style="rhombus;whiteSpace=wrap;html=1;fontSize=11;shadow=0;strokeWidth=1;spacing=6;spacingTop=-4;" vertex="1" parent="WIyWlLk6GJQsqaUBKTNV-1">
          <mxGeometry x="470" y="905" width="80" height="80" as="geometry" />
        </mxCell>
        <mxCell id="qOnM7dYOcG7nfSBSF0P8-58" style="edgeStyle=orthogonalEdgeStyle;rounded=0;orthogonalLoop=1;jettySize=auto;html=1;exitX=0.5;exitY=1;exitDx=0;exitDy=0;fontSize=11;endArrow=classic;endFill=1;entryX=1;entryY=0.5;entryDx=0;entryDy=0;" edge="1" parent="WIyWlLk6GJQsqaUBKTNV-1" source="qOnM7dYOcG7nfSBSF0P8-49" target="qOnM7dYOcG7nfSBSF0P8-53">
          <mxGeometry relative="1" as="geometry">
            <mxPoint x="510" y="1020" as="targetPoint" />
            <Array as="points">
              <mxPoint x="690" y="1015" />
            </Array>
          </mxGeometry>
        </mxCell>
        <mxCell id="qOnM7dYOcG7nfSBSF0P8-49" value="Print changes" style="whiteSpace=wrap;html=1;shadow=0;strokeWidth=1;spacing=6;spacingTop=-4;rounded=0;shape=parallelogram;perimeter=parallelogramPerimeter;" vertex="1" parent="WIyWlLk6GJQsqaUBKTNV-1">
          <mxGeometry x="630" y="927.5" width="120" height="35" as="geometry" />
        </mxCell>
        <mxCell id="qOnM7dYOcG7nfSBSF0P8-56" value="" style="edgeStyle=orthogonalEdgeStyle;rounded=0;orthogonalLoop=1;jettySize=auto;html=1;fontSize=11;endArrow=classic;endFill=1;" edge="1" parent="WIyWlLk6GJQsqaUBKTNV-1" source="qOnM7dYOcG7nfSBSF0P8-53" target="qOnM7dYOcG7nfSBSF0P8-55">
          <mxGeometry relative="1" as="geometry" />
        </mxCell>
        <mxCell id="qOnM7dYOcG7nfSBSF0P8-53" value="Update resources" style="whiteSpace=wrap;html=1;fontSize=11;shadow=0;strokeWidth=1;spacing=6;spacingTop=-4;" vertex="1" parent="WIyWlLk6GJQsqaUBKTNV-1">
          <mxGeometry x="300" y="1000" width="120" height="30" as="geometry" />
        </mxCell>
        <mxCell id="qOnM7dYOcG7nfSBSF0P8-59" style="edgeStyle=orthogonalEdgeStyle;rounded=0;orthogonalLoop=1;jettySize=auto;html=1;fontSize=11;endArrow=none;endFill=0;" edge="1" parent="WIyWlLk6GJQsqaUBKTNV-1" source="qOnM7dYOcG7nfSBSF0P8-55">
          <mxGeometry relative="1" as="geometry">
            <mxPoint x="40" y="840" as="targetPoint" />
          </mxGeometry>
        </mxCell>
        <mxCell id="qOnM7dYOcG7nfSBSF0P8-55" value="Print coffee" style="whiteSpace=wrap;html=1;fontSize=12;shadow=0;strokeWidth=1;spacing=6;spacingTop=-4;shape=parallelogram;perimeter=parallelogramPerimeter;" vertex="1" parent="WIyWlLk6GJQsqaUBKTNV-1">
          <mxGeometry x="280" y="1080" width="160" height="30" as="geometry" />
        </mxCell>
      </root>
    </mxGraphModel>
  </diagram>
</mxfile>
